<mxfile host="65bd71144e">
    <diagram id="pygG9RtXrh9Qg7fKJNiD" name="Page-1">
        <mxGraphModel dx="578" dy="518" grid="1" gridSize="10" guides="1" tooltips="1" connect="1" arrows="1" fold="1" page="1" pageScale="1" pageWidth="850" pageHeight="1100" math="0" shadow="0">
            <root>
                <mxCell id="0"/>
                <mxCell id="1" parent="0"/>
                <mxCell id="2" value="" style="edgeStyle=none;html=1;" edge="1" parent="1" source="3" target="6">
                    <mxGeometry relative="1" as="geometry"/>
                </mxCell>
                <mxCell id="3" value="Page loaded.&lt;br&gt;Waiting for user Input" style="rounded=0;whiteSpace=wrap;html=1;" vertex="1" parent="1">
                    <mxGeometry x="365" y="80" width="120" height="60" as="geometry"/>
                </mxCell>
                <mxCell id="4" value="" style="edgeStyle=none;html=1;entryX=0.5;entryY=0;entryDx=0;entryDy=0;" edge="1" parent="1" source="6" target="9">
                    <mxGeometry relative="1" as="geometry">
                        <Array as="points">
                            <mxPoint x="600" y="230"/>
                        </Array>
                    </mxGeometry>
                </mxCell>
                <mxCell id="5" value="" style="edgeStyle=none;html=1;entryX=0.5;entryY=0;entryDx=0;entryDy=0;exitX=0;exitY=0.5;exitDx=0;exitDy=0;" edge="1" parent="1" source="6" target="13">
                    <mxGeometry relative="1" as="geometry">
                        <Array as="points">
                            <mxPoint x="250" y="230"/>
                        </Array>
                    </mxGeometry>
                </mxCell>
                <mxCell id="6" value="The user starts interacting with the site" style="rhombus;whiteSpace=wrap;html=1;rounded=0;" vertex="1" parent="1">
                    <mxGeometry x="370" y="180" width="110" height="100" as="geometry"/>
                </mxCell>
                <mxCell id="8" value="" style="endArrow=classic;html=1;entryX=1;entryY=0.5;entryDx=0;entryDy=0;" edge="1" parent="1" target="3">
                    <mxGeometry width="50" height="50" relative="1" as="geometry">
                        <mxPoint x="425" y="940" as="sourcePoint"/>
                        <mxPoint x="530" y="430" as="targetPoint"/>
                        <Array as="points">
                            <mxPoint x="425" y="980"/>
                            <mxPoint x="700" y="980"/>
                            <mxPoint x="700" y="110"/>
                        </Array>
                    </mxGeometry>
                </mxCell>
                <mxCell id="9" value="A search tag equal to input.value is created" style="whiteSpace=wrap;html=1;rounded=0;" vertex="1" parent="1">
                    <mxGeometry x="540" y="280" width="120" height="60" as="geometry"/>
                </mxCell>
                <mxCell id="10" value="The recipe is searched for tag correspondance in the title, ingredients and recette" style="rounded=0;whiteSpace=wrap;html=1;" vertex="1" parent="1">
                    <mxGeometry x="335" y="460" width="185" height="90" as="geometry"/>
                </mxCell>
                <mxCell id="11" value="&lt;font style=&quot;font-size: 11px;&quot;&gt;The User execute his search &lt;br&gt;via the main search input&lt;/font&gt;" style="text;html=1;align=center;verticalAlign=middle;resizable=0;points=[];autosize=1;strokeColor=none;fillColor=none;" vertex="1" parent="1">
                    <mxGeometry x="470" y="190" width="160" height="40" as="geometry"/>
                </mxCell>
                <mxCell id="12" value="&lt;font style=&quot;font-size: 11px;&quot;&gt;The User selects an element &lt;br&gt;from the three dropdown menus&lt;/font&gt;" style="text;html=1;align=center;verticalAlign=middle;resizable=0;points=[];autosize=1;strokeColor=none;fillColor=none;" vertex="1" parent="1">
                    <mxGeometry x="205" y="190" width="180" height="40" as="geometry"/>
                </mxCell>
                <mxCell id="13" value="A search tag corresponding to the selected li element is created" style="whiteSpace=wrap;html=1;rounded=0;" vertex="1" parent="1">
                    <mxGeometry x="190" y="280" width="120" height="60" as="geometry"/>
                </mxCell>
                <mxCell id="14" style="edgeStyle=none;html=1;fontSize=11;" edge="1" parent="1">
                    <mxGeometry relative="1" as="geometry">
                        <mxPoint x="500" y="390" as="targetPoint"/>
                        <mxPoint x="500" y="390" as="sourcePoint"/>
                    </mxGeometry>
                </mxCell>
                <mxCell id="15" value="The list of tags&lt;br&gt;&amp;nbsp;is updated" style="rhombus;whiteSpace=wrap;html=1;fontSize=11;" vertex="1" parent="1">
                    <mxGeometry x="360" y="350" width="130" height="80" as="geometry"/>
                </mxCell>
                <mxCell id="16" value="" style="endArrow=classic;html=1;fontSize=11;exitX=0.5;exitY=1;exitDx=0;exitDy=0;entryX=1;entryY=0.5;entryDx=0;entryDy=0;" edge="1" parent="1" source="9" target="15">
                    <mxGeometry width="50" height="50" relative="1" as="geometry">
                        <mxPoint x="480" y="430" as="sourcePoint"/>
                        <mxPoint x="530" y="380" as="targetPoint"/>
                        <Array as="points">
                            <mxPoint x="600" y="390"/>
                        </Array>
                    </mxGeometry>
                </mxCell>
                <mxCell id="17" value="" style="endArrow=classic;html=1;fontSize=11;exitX=0.5;exitY=1;exitDx=0;exitDy=0;entryX=0;entryY=0.5;entryDx=0;entryDy=0;" edge="1" parent="1" source="13" target="15">
                    <mxGeometry width="50" height="50" relative="1" as="geometry">
                        <mxPoint x="480" y="420" as="sourcePoint"/>
                        <mxPoint x="380" y="390" as="targetPoint"/>
                        <Array as="points">
                            <mxPoint x="250" y="390"/>
                        </Array>
                    </mxGeometry>
                </mxCell>
                <mxCell id="18" value="" style="endArrow=classic;html=1;fontSize=11;exitX=0.5;exitY=1;exitDx=0;exitDy=0;entryX=0.5;entryY=0;entryDx=0;entryDy=0;" edge="1" parent="1" source="15" target="10">
                    <mxGeometry width="50" height="50" relative="1" as="geometry">
                        <mxPoint x="480" y="420" as="sourcePoint"/>
                        <mxPoint x="530" y="370" as="targetPoint"/>
                    </mxGeometry>
                </mxCell>
                <mxCell id="20" value="The user erase&lt;br&gt;&amp;nbsp;a search tag" style="rhombus;whiteSpace=wrap;html=1;fontSize=11;" vertex="1" parent="1">
                    <mxGeometry x="360" y="1000" width="130" height="80" as="geometry"/>
                </mxCell>
                <mxCell id="21" value="" style="endArrow=classic;html=1;fontSize=11;" edge="1" parent="1" target="20">
                    <mxGeometry width="50" height="50" relative="1" as="geometry">
                        <mxPoint x="425" y="970" as="sourcePoint"/>
                        <mxPoint x="527.5" y="640" as="targetPoint"/>
                    </mxGeometry>
                </mxCell>
                <mxCell id="22" value="" style="endArrow=classic;html=1;fontSize=11;exitX=0;exitY=0.5;exitDx=0;exitDy=0;entryX=0;entryY=0.5;entryDx=0;entryDy=0;" edge="1" parent="1" source="20" target="15">
                    <mxGeometry width="50" height="50" relative="1" as="geometry">
                        <mxPoint x="480" y="410" as="sourcePoint"/>
                        <mxPoint x="530" y="360" as="targetPoint"/>
                        <Array as="points">
                            <mxPoint x="250" y="1040"/>
                            <mxPoint x="250" y="390"/>
                        </Array>
                    </mxGeometry>
                </mxCell>
                <mxCell id="23" value="Yes" style="text;html=1;align=center;verticalAlign=middle;resizable=0;points=[];autosize=1;strokeColor=none;fillColor=none;fontSize=11;" vertex="1" parent="1">
                    <mxGeometry x="322.5" y="1010" width="40" height="30" as="geometry"/>
                </mxCell>
                <mxCell id="25" value="" style="endArrow=classic;html=1;fontSize=11;exitX=0.5;exitY=1;exitDx=0;exitDy=0;entryX=0.5;entryY=0;entryDx=0;entryDy=0;" edge="1" parent="1" source="10" target="26">
                    <mxGeometry width="50" height="50" relative="1" as="geometry">
                        <mxPoint x="320" y="490" as="sourcePoint"/>
                        <mxPoint x="427.5" y="590" as="targetPoint"/>
                    </mxGeometry>
                </mxCell>
                <mxCell id="26" value="All tags are included&lt;br&gt;&amp;nbsp;in the recipe." style="rhombus;whiteSpace=wrap;html=1;fontSize=11;" vertex="1" parent="1">
                    <mxGeometry x="362.5" y="620" width="130" height="80" as="geometry"/>
                </mxCell>
                <mxCell id="30" value="" style="edgeStyle=none;orthogonalLoop=1;jettySize=auto;html=1;exitX=0.5;exitY=1;exitDx=0;exitDy=0;entryX=0.5;entryY=0;entryDx=0;entryDy=0;" edge="1" parent="1" source="26" target="34">
                    <mxGeometry width="100" relative="1" as="geometry">
                        <mxPoint x="440" y="710" as="sourcePoint"/>
                        <mxPoint x="428" y="730" as="targetPoint"/>
                        <Array as="points"/>
                    </mxGeometry>
                </mxCell>
                <mxCell id="31" value="Yes" style="text;html=1;align=center;verticalAlign=middle;resizable=0;points=[];autosize=1;strokeColor=none;fillColor=none;" vertex="1" parent="1">
                    <mxGeometry x="420" y="695" width="40" height="30" as="geometry"/>
                </mxCell>
                <mxCell id="33" value="No" style="text;html=1;align=center;verticalAlign=middle;resizable=0;points=[];autosize=1;strokeColor=none;fillColor=none;" vertex="1" parent="1">
                    <mxGeometry x="480" y="630" width="40" height="30" as="geometry"/>
                </mxCell>
                <mxCell id="34" value="The recipe will be displayed" style="whiteSpace=wrap;html=1;" vertex="1" parent="1">
                    <mxGeometry x="365" y="750" width="120" height="60" as="geometry"/>
                </mxCell>
                <mxCell id="36" value="The internal count for the search is incremented to analyse the next recipe" style="whiteSpace=wrap;html=1;" vertex="1" parent="1">
                    <mxGeometry x="540" y="550" width="130" height="60" as="geometry"/>
                </mxCell>
                <mxCell id="37" value="" style="edgeStyle=none;orthogonalLoop=1;jettySize=auto;html=1;entryX=1;entryY=0.5;entryDx=0;entryDy=0;exitX=0.5;exitY=0;exitDx=0;exitDy=0;" edge="1" parent="1" source="36" target="10">
                    <mxGeometry width="100" relative="1" as="geometry">
                        <mxPoint x="540" y="510" as="sourcePoint"/>
                        <mxPoint x="640" y="510" as="targetPoint"/>
                        <Array as="points">
                            <mxPoint x="605" y="505"/>
                        </Array>
                    </mxGeometry>
                </mxCell>
                <mxCell id="38" value="" style="edgeStyle=none;orthogonalLoop=1;jettySize=auto;html=1;exitX=0.312;exitY=1.042;exitDx=0;exitDy=0;exitPerimeter=0;entryX=0.5;entryY=1;entryDx=0;entryDy=0;" edge="1" parent="1" source="33" target="36">
                    <mxGeometry width="100" relative="1" as="geometry">
                        <mxPoint x="520" y="670" as="sourcePoint"/>
                        <mxPoint x="620" y="670" as="targetPoint"/>
                        <Array as="points">
                            <mxPoint x="605" y="661"/>
                        </Array>
                    </mxGeometry>
                </mxCell>
                <mxCell id="41" value="The last recipe has&lt;br&gt;&amp;nbsp;been examined" style="rhombus;whiteSpace=wrap;html=1;fontSize=11;" vertex="1" parent="1">
                    <mxGeometry x="360" y="860" width="130" height="80" as="geometry"/>
                </mxCell>
                <mxCell id="42" value="Yes" style="text;html=1;align=center;verticalAlign=middle;resizable=0;points=[];autosize=1;strokeColor=none;fillColor=none;" vertex="1" parent="1">
                    <mxGeometry x="425" y="930" width="40" height="30" as="geometry"/>
                </mxCell>
                <mxCell id="43" value="No" style="text;html=1;align=center;verticalAlign=middle;resizable=0;points=[];autosize=1;strokeColor=none;fillColor=none;" vertex="1" parent="1">
                    <mxGeometry x="480" y="870" width="40" height="30" as="geometry"/>
                </mxCell>
                <mxCell id="44" value="" style="edgeStyle=none;orthogonalLoop=1;jettySize=auto;html=1;exitX=0.312;exitY=1.03;exitDx=0;exitDy=0;exitPerimeter=0;entryX=0.5;entryY=1;entryDx=0;entryDy=0;" edge="1" parent="1" source="43" target="36">
                    <mxGeometry width="100" relative="1" as="geometry">
                        <mxPoint x="490" y="930" as="sourcePoint"/>
                        <mxPoint x="600" y="610" as="targetPoint"/>
                        <Array as="points">
                            <mxPoint x="605" y="901"/>
                        </Array>
                    </mxGeometry>
                </mxCell>
                <mxCell id="45" value="" style="edgeStyle=none;orthogonalLoop=1;jettySize=auto;html=1;exitX=0.5;exitY=1;exitDx=0;exitDy=0;entryX=0.5;entryY=0;entryDx=0;entryDy=0;" edge="1" parent="1" source="34" target="41">
                    <mxGeometry width="100" relative="1" as="geometry">
                        <mxPoint x="490" y="820" as="sourcePoint"/>
                        <mxPoint x="590" y="820" as="targetPoint"/>
                        <Array as="points"/>
                    </mxGeometry>
                </mxCell>
            </root>
        </mxGraphModel>
    </diagram>
</mxfile>